<?xml version="1.0" encoding="UTF-8"?> <svg xmlns="http://www.w3.org/2000/svg" width="1533.74" height="604.9" viewBox="0 0 1533.74 604.9"> <title>Ресурс 10</title> <g id="Слой_2" data-name="Слой 2"> <g id="Слой_3" data-name="Слой 3"> <g> <path d="M320.1,322.73v14.52L49.5,450.11V435.59L304.92,330,49.5,224.39V209.87Z" transform="translate(-49.5 -97.01)" style="fill: #fff"></path> <path d="M706.86,548.45V561H398v-9.9L598,348.47q41.58-42.23,56.1-71.61a136.23,136.23,0,0,0,14.52-61.05q0-49.5-33.33-77.88t-95.37-28.38q-47.52,0-82.5,13.86a155.64,155.64,0,0,0-60.06,42.24l-9.24-9.24Q441.54,97,539.88,97q65.34,0,103.62,31.68t38.28,86.46a147.12,147.12,0,0,1-15.84,66.66q-15.84,31.68-58.74,75.24L418.44,548.45Z" transform="translate(-49.5 -97.01)" style="fill: #fff"></path> <path d="M1023,333q44.88,34,44.88,98.67,0,58.1-39.93,94.71T914.09,563q-50.16,0-93.06-18.15t-64-47.19l8.58-8.58q19.8,27.07,60.06,44.22t88.44,17.16q68.64,0,104.61-32.67t36-86.13q0-59.4-41.58-89.76T873.17,311.51H786.05L810.47,99h234.3v12.54H821.69L799.91,299h75.9Q978.11,299,1023,333Z" transform="translate(-49.5 -97.01)" style="fill: #fff"></path> <path d="M1220.66,534.26q-39.95-28.71-62-81.51T1136.51,330q0-69.94,22.11-122.76t62-81.51Q1260.57,97,1312.73,97t92.07,28.71q39.92,28.71,62,81.51T1489,330q0,70-22.11,122.76t-62,81.51Q1364.86,563,1312.73,563T1220.66,534.26Zm177.21-10.89q36.95-27,57.42-76.89T1475.75,330q0-66.64-20.46-116.49t-57.42-76.89q-37-27-85.14-27.06t-85.14,27.06q-37,27.07-57.42,76.89T1149.71,330q0,66.67,20.46,116.49t57.42,76.89q36.95,27.07,85.14,27.06T1397.87,523.37Z" transform="translate(-49.5 -97.01)" style="fill: #fff"></path> </g> <g> <path d="M1316.11,661.48a4.32,4.32,0,0,1,1.69,1.7,5.06,5.06,0,0,1,.61,2.5,5.12,5.12,0,0,1-.61,2.53,4.43,4.43,0,0,1-1.68,1.7,4.88,4.88,0,0,1-2.42.6,4.46,4.46,0,0,1-2.08-.48,3.9,3.9,0,0,1-1.52-1.39v5.27h-1.28V661H1310v1.87a4,4,0,0,1,1.52-1.44,4.53,4.53,0,0,1,2.14-.5A4.9,4.9,0,0,1,1316.11,661.48Zm-.7,7.44a3.25,3.25,0,0,0,1.26-1.31,3.91,3.91,0,0,0,.46-1.93,3.86,3.86,0,0,0-.46-1.91,3.31,3.31,0,0,0-1.26-1.31,3.55,3.55,0,0,0-1.8-.46,3.51,3.51,0,0,0-1.81.46,3.31,3.31,0,0,0-1.26,1.31,3.86,3.86,0,0,0-.46,1.91,3.91,3.91,0,0,0,.46,1.93,3.25,3.25,0,0,0,1.26,1.31,3.61,3.61,0,0,0,1.81.46A3.65,3.65,0,0,0,1315.41,668.92Z" transform="translate(-49.5 -97.01)" style="fill: #fff"></path> <path d="M1329.45,666.08h-7.92a3.4,3.4,0,0,0,1.13,2.39,3.79,3.79,0,0,0,2.59.91,4.07,4.07,0,0,0,1.62-.32,3.55,3.55,0,0,0,1.28-.93l.72.83a4.07,4.07,0,0,1-1.58,1.15,5.16,5.16,0,0,1-2.07.4,5.31,5.31,0,0,1-2.59-.62,4.52,4.52,0,0,1-1.75-1.72,4.9,4.9,0,0,1-.63-2.49,5.08,5.08,0,0,1,.6-2.48,4.33,4.33,0,0,1,1.66-1.71,4.59,4.59,0,0,1,2.36-.61,4.54,4.54,0,0,1,2.36.61,4.39,4.39,0,0,1,1.64,1.7,5.09,5.09,0,0,1,.59,2.49Zm-6.87-3.23a3.39,3.39,0,0,0-1,2.28h6.71a3.44,3.44,0,0,0-1-2.28,3.26,3.26,0,0,0-2.32-.87A3.22,3.22,0,0,0,1322.58,662.85Z" transform="translate(-49.5 -97.01)" style="fill: #fff"></path> <path d="M1338.12,661.81a3.56,3.56,0,0,1,1,2.74v5.87h-1.22v-1.48a2.85,2.85,0,0,1-1.27,1.15,4.39,4.39,0,0,1-2,.42,3.85,3.85,0,0,1-2.52-.76,2.45,2.45,0,0,1-.94-2,2.4,2.4,0,0,1,.88-1.94,4.28,4.28,0,0,1,2.78-.74h3v-.57a2.43,2.43,0,0,0-.68-1.87,2.86,2.86,0,0,0-2-.63,5.07,5.07,0,0,0-1.73.29,4.41,4.41,0,0,0-1.42.82l-.57-1a5,5,0,0,1,1.72-.95,6.83,6.83,0,0,1,2.13-.33A4,4,0,0,1,1338.12,661.81Zm-1.44,7.2a2.93,2.93,0,0,0,1.15-1.43V666h-3c-1.62,0-2.43.56-2.43,1.69a1.53,1.53,0,0,0,.63,1.3,2.87,2.87,0,0,0,1.77.48A3.34,3.34,0,0,0,1336.68,669Z" transform="translate(-49.5 -97.01)" style="fill: #fff"></path> <path d="M1350.25,661v9.47H1349v-8.34h-4.54l-.13,2.34a17.14,17.14,0,0,1-.68,4.54,2,2,0,0,1-1.93,1.58,3.42,3.42,0,0,1-.91-.14l.09-1.1a2.37,2.37,0,0,0,.45.08,1.2,1.2,0,0,0,1.11-.69A4.81,4.81,0,0,0,1343,667q.12-1,.21-2.67l.16-3.38Z" transform="translate(-49.5 -97.01)" style="fill: #fff"></path> <path d="M1353.89,661h1.28v7.52l6.32-7.52h1.13v9.47h-1.28v-7.53l-6.3,7.53h-1.15Z" transform="translate(-49.5 -97.01)" style="fill: #fff"></path> <path d="M1372.24,666.3a1.93,1.93,0,0,1,.55,1.4,2.18,2.18,0,0,1-.57,1.48,3.72,3.72,0,0,1-1.54,1,6.32,6.32,0,0,1-2.14.35,6.89,6.89,0,0,1-2-.3,5.31,5.31,0,0,1-1.73-.87l.43-1a4.87,4.87,0,0,0,1.51.76,5.86,5.86,0,0,0,1.75.27,4.2,4.2,0,0,0,2.15-.5,1.5,1.5,0,0,0,.84-1.34,1.33,1.33,0,0,0-.69-1.18,3.55,3.55,0,0,0-1.87-.42h-1.62v-.94h1.55a3.18,3.18,0,0,0,1.71-.4,1.24,1.24,0,0,0,.65-1.09,1.35,1.35,0,0,0-.73-1.19,3.69,3.69,0,0,0-1.9-.43,6.62,6.62,0,0,0-3,.77l-.36-1a7.61,7.61,0,0,1,3.51-.88,5.8,5.8,0,0,1,2,.32,3.2,3.2,0,0,1,1.36.89,2,2,0,0,1,.5,1.33,1.88,1.88,0,0,1-.5,1.28,1,1,0,1,0,.22,1.64Z" transform="translate(-49.5 -97.01)" style="fill: #fff"></path> <path d="M1377.13,669.89a4.61,4.61,0,0,1-1.73-1.72,5.22,5.22,0,0,1,0-5,4.51,4.51,0,0,1,1.73-1.71,5.29,5.29,0,0,1,4.93,0,4.48,4.48,0,0,1,1.72,1.71,5.29,5.29,0,0,1,0,5,4.58,4.58,0,0,1-1.72,1.72,5.21,5.21,0,0,1-4.93,0Zm4.27-1a3.22,3.22,0,0,0,1.25-1.31,4.34,4.34,0,0,0,0-3.85,3.22,3.22,0,0,0-1.25-1.31,3.87,3.87,0,0,0-3.62,0,3.38,3.38,0,0,0-1.26,1.31,4.34,4.34,0,0,0,0,3.85,3.38,3.38,0,0,0,1.26,1.31,3.79,3.79,0,0,0,3.62,0Z" transform="translate(-49.5 -97.01)" style="fill: #fff"></path> <path d="M1395.09,667.84a2.19,2.19,0,0,1-.92,1.91,4.58,4.58,0,0,1-2.73.67h-4.3V661h4.17a4.44,4.44,0,0,1,2.54.63,2.06,2.06,0,0,1,.92,1.8,2,2,0,0,1-.43,1.32,2.46,2.46,0,0,1-1.17.82A2.2,2.2,0,0,1,1395.09,667.84Zm-6.71-2.68h2.84a2.86,2.86,0,0,0,1.68-.41,1.4,1.4,0,0,0,.59-1.21,1.35,1.35,0,0,0-.59-1.19,3,3,0,0,0-1.68-.39h-2.84Zm4.84,3.85a1.35,1.35,0,0,0,.61-1.24,1.43,1.43,0,0,0-.56-1.25,3,3,0,0,0-1.76-.4h-3.13v3.29h3A3.37,3.37,0,0,0,1393.22,669Z" transform="translate(-49.5 -97.01)" style="fill: #fff"></path> <path d="M1404.18,661.81a3.56,3.56,0,0,1,1,2.74v5.87H1404v-1.48a2.85,2.85,0,0,1-1.27,1.15,4.39,4.39,0,0,1-2,.42,3.85,3.85,0,0,1-2.52-.76,2.42,2.42,0,0,1-.94-2,2.4,2.4,0,0,1,.88-1.94,4.26,4.26,0,0,1,2.78-.74h3v-.57a2.43,2.43,0,0,0-.68-1.87,2.86,2.86,0,0,0-2-.63,5,5,0,0,0-1.73.29,4.41,4.41,0,0,0-1.42.82l-.58-1a5.08,5.08,0,0,1,1.73-.95,6.78,6.78,0,0,1,2.13-.33A4,4,0,0,1,1404.18,661.81Zm-1.44,7.2a2.93,2.93,0,0,0,1.15-1.43V666h-3c-1.62,0-2.43.56-2.43,1.69a1.53,1.53,0,0,0,.63,1.3,2.87,2.87,0,0,0,1.77.48A3.36,3.36,0,0,0,1402.74,669Z" transform="translate(-49.5 -97.01)" style="fill: #fff"></path> <path d="M1408.57,661h1.28v4.19h6V661h1.28v9.47h-1.28v-4.18h-6v4.18h-1.28Z" transform="translate(-49.5 -97.01)" style="fill: #fff"></path> <path d="M1420.72,661H1422v4.19h6V661h1.28v9.47H1428v-4.18h-6v4.18h-1.28Z" transform="translate(-49.5 -97.01)" style="fill: #fff"></path> <path d="M1439.57,665.09a2.74,2.74,0,0,1,.93,2.23,2.8,2.8,0,0,1-1,2.32,4.47,4.47,0,0,1-2.88.8l-3.75,0V661h1.28v3.31l2.7,0A4.28,4.28,0,0,1,1439.57,665.09Zm-1,3.84a2,2,0,0,0,.68-1.61,1.79,1.79,0,0,0-.67-1.54,3.32,3.32,0,0,0-2-.53l-2.39,0v4.21l2.39,0A3,3,0,0,0,1438.53,668.93Zm3.56-8h1.28v9.47h-1.28Z" transform="translate(-49.5 -97.01)" style="fill: #fff"></path> <path d="M1452.92,670.42l-3-4-3,4h-1.44l3.75-4.86-3.57-4.61h1.44l2.85,3.71,2.84-3.71h1.41l-3.57,4.61,3.78,4.86Z" transform="translate(-49.5 -97.01)" style="fill: #fff"></path> <path d="M1469.68,661v9.47h-1.28v-8.34h-5.94v8.34h-1.27V661Z" transform="translate(-49.5 -97.01)" style="fill: #fff"></path> <path d="M1480.61,661.48a4.32,4.32,0,0,1,1.69,1.7,5.06,5.06,0,0,1,.61,2.5,5.12,5.12,0,0,1-.61,2.53,4.43,4.43,0,0,1-1.68,1.7,4.88,4.88,0,0,1-2.42.6,4.46,4.46,0,0,1-2.08-.48,3.9,3.9,0,0,1-1.52-1.39v5.27h-1.28V661h1.22v1.87a4,4,0,0,1,1.52-1.44,4.53,4.53,0,0,1,2.14-.5A4.9,4.9,0,0,1,1480.61,661.48Zm-.7,7.44a3.25,3.25,0,0,0,1.26-1.31,3.91,3.91,0,0,0,.46-1.93,3.86,3.86,0,0,0-.46-1.91,3.31,3.31,0,0,0-1.26-1.31,3.55,3.55,0,0,0-1.8-.46,3.51,3.51,0,0,0-1.81.46,3.31,3.31,0,0,0-1.26,1.31,3.86,3.86,0,0,0-.46,1.91,3.91,3.91,0,0,0,.46,1.93,3.25,3.25,0,0,0,1.26,1.31,3.61,3.61,0,0,0,1.81.46A3.65,3.65,0,0,0,1479.91,668.92Z" transform="translate(-49.5 -97.01)" style="fill: #fff"></path> <path d="M1487.11,669.89a4.54,4.54,0,0,1-1.73-1.72,5.22,5.22,0,0,1,0-5,4.44,4.44,0,0,1,1.73-1.71,5.29,5.29,0,0,1,4.93,0,4.48,4.48,0,0,1,1.72,1.71,5.29,5.29,0,0,1,0,5,4.58,4.58,0,0,1-1.72,1.72,5.21,5.21,0,0,1-4.93,0Zm4.27-1a3.29,3.29,0,0,0,1.25-1.31,4.34,4.34,0,0,0,0-3.85,3.29,3.29,0,0,0-1.25-1.31,3.87,3.87,0,0,0-3.62,0,3.38,3.38,0,0,0-1.26,1.31,4.26,4.26,0,0,0,0,3.85,3.38,3.38,0,0,0,1.26,1.31,3.79,3.79,0,0,0,3.62,0Z" transform="translate(-49.5 -97.01)" style="fill: #fff"></path> <path d="M1505.39,666.08h-7.92a3.37,3.37,0,0,0,1.14,2.39,3.79,3.79,0,0,0,2.59.91,4.07,4.07,0,0,0,1.62-.32,3.55,3.55,0,0,0,1.28-.93l.72.83a4.07,4.07,0,0,1-1.58,1.15,5.21,5.21,0,0,1-2.08.4,5.29,5.29,0,0,1-2.58-.62,4.52,4.52,0,0,1-1.75-1.72,4.8,4.8,0,0,1-.63-2.49,5.08,5.08,0,0,1,.6-2.48,4.38,4.38,0,0,1,1.65-1.71,4.65,4.65,0,0,1,2.37-.61,4.56,4.56,0,0,1,2.36.61,4.39,4.39,0,0,1,1.64,1.7,5.2,5.2,0,0,1,.59,2.49Zm-6.86-3.23a3.45,3.45,0,0,0-1.06,2.28h6.72a3.45,3.45,0,0,0-1.06-2.28,3.48,3.48,0,0,0-4.6,0Z" transform="translate(-49.5 -97.01)" style="fill: #fff"></path> <path d="M1511.67,666.21h-2.16v4.21h-1.27V661h1.27v4.16h2.18L1515,661h1.39l-3.73,4.59,4,4.88h-1.51Z" transform="translate(-49.5 -97.01)" style="fill: #fff"></path> <path d="M1525.16,662.08h-3.58v8.34h-1.28v-8.34h-3.58V661h8.44Z" transform="translate(-49.5 -97.01)" style="fill: #fff"></path> <path d="M1528,669.89a4.61,4.61,0,0,1-1.73-1.72,5.22,5.22,0,0,1,0-5,4.51,4.51,0,0,1,1.73-1.71,5.29,5.29,0,0,1,4.93,0,4.42,4.42,0,0,1,1.72,1.71,5.29,5.29,0,0,1,0,5,4.51,4.51,0,0,1-1.72,1.72,5.21,5.21,0,0,1-4.93,0Zm4.27-1a3.25,3.25,0,0,0,1.26-1.31,4.34,4.34,0,0,0,0-3.85,3.25,3.25,0,0,0-1.26-1.31,3.85,3.85,0,0,0-3.61,0,3.25,3.25,0,0,0-1.26,1.31,4.26,4.26,0,0,0,0,3.85,3.25,3.25,0,0,0,1.26,1.31,3.77,3.77,0,0,0,3.61,0Z" transform="translate(-49.5 -97.01)" style="fill: #fff"></path> <path d="M1546,667.84a2.21,2.21,0,0,1-.91,1.91,4.64,4.64,0,0,1-2.74.67H1538V661h4.17a4.44,4.44,0,0,1,2.54.63,2.06,2.06,0,0,1,.92,1.8,2.08,2.08,0,0,1-.42,1.32,2.54,2.54,0,0,1-1.18.82A2.2,2.2,0,0,1,1546,667.84Zm-6.71-2.68h2.84a2.89,2.89,0,0,0,1.69-.41,1.39,1.39,0,0,0,.58-1.21,1.34,1.34,0,0,0-.58-1.19,3.06,3.06,0,0,0-1.69-.39h-2.84Zm4.84,3.85a1.35,1.35,0,0,0,.61-1.24,1.45,1.45,0,0,0-.55-1.25,3.07,3.07,0,0,0-1.77-.4h-3.13v3.29h3A3.36,3.36,0,0,0,1544.11,669Z" transform="translate(-49.5 -97.01)" style="fill: #fff"></path> <path d="M1318.05,697.3v3.41h-1.2v-2.29h-8.48v2.29h-1.21V697.3h.54c.64,0,1.07-.5,1.3-1.4a20.88,20.88,0,0,0,.47-3.78l.12-3.17h7v8.35Zm-7.76-1.79a2.74,2.74,0,0,1-.9,1.79h5.91v-7.22h-4.56l-.1,2.11A23,23,0,0,1,1310.29,695.51Z" transform="translate(-49.5 -97.01)" style="fill: #fff"></path> <path d="M1328.28,689v9.47H1327v-8.34h-4.54l-.12,2.34a17.5,17.5,0,0,1-.69,4.54,2,2,0,0,1-1.92,1.58,3.43,3.43,0,0,1-.92-.14l.09-1.1a2.37,2.37,0,0,0,.45.08,1.2,1.2,0,0,0,1.11-.69A4.61,4.61,0,0,0,1321,695q.12-1,.21-2.67l.17-3.38Z" transform="translate(-49.5 -97.01)" style="fill: #fff"></path> <path d="M1339.18,689v9.47H1338v-3.13h-3.33l-2.19,3.13h-1.39l2.36-3.31a3.23,3.23,0,0,1-1.69-1.05,3.22,3.22,0,0,1,.48-4.28,4.77,4.77,0,0,1,3-.83Zm-4,5.38H1338v-4.25h-2.77c-1.85,0-2.77.72-2.77,2.15S1333.36,694.33,1335.15,694.33Z" transform="translate(-49.5 -97.01)" style="fill: #fff"></path> <path d="M1358.12,689v9.47H1357v-7.49l-3.83,6.34h-.58l-3.83-6.36v7.51h-1.17V689h1.29l4,6.82,4.09-6.82Z" transform="translate(-49.5 -97.01)" style="fill: #fff"></path> <path d="M1361.76,689H1363v7.52l6.32-7.52h1.14v9.47h-1.28v-7.53l-6.3,7.53h-1.15Z" transform="translate(-49.5 -97.01)" style="fill: #fff"></path> <path d="M1377.58,694.21h-2.16v4.21h-1.28V689h1.28v4.16h2.18l3.32-4.16h1.39l-3.73,4.59,4,4.88h-1.51Z" transform="translate(-49.5 -97.01)" style="fill: #fff"></path> <path d="M1391.89,689.48a4.32,4.32,0,0,1,1.69,1.7,5.06,5.06,0,0,1,.61,2.5,5.12,5.12,0,0,1-.61,2.53,4.43,4.43,0,0,1-1.68,1.7,4.92,4.92,0,0,1-2.43.6,4.42,4.42,0,0,1-2.07-.48,4,4,0,0,1-1.53-1.39v5.27h-1.27V689h1.22v1.87a4,4,0,0,1,1.52-1.44,4.52,4.52,0,0,1,2.13-.5A4.91,4.91,0,0,1,1391.89,689.48Zm-.71,7.44a3.27,3.27,0,0,0,1.27-1.31,3.91,3.91,0,0,0,.46-1.93,3.86,3.86,0,0,0-.46-1.91,3.33,3.33,0,0,0-1.27-1.31,3.55,3.55,0,0,0-1.8-.46,3.5,3.5,0,0,0-1.8.46,3.31,3.31,0,0,0-1.26,1.31,3.86,3.86,0,0,0-.46,1.91,3.91,3.91,0,0,0,.46,1.93,3.25,3.25,0,0,0,1.26,1.31,3.6,3.6,0,0,0,1.8.46A3.65,3.65,0,0,0,1391.18,696.92Z" transform="translate(-49.5 -97.01)" style="fill: #fff"></path> <path d="M1398.38,697.89a4.58,4.58,0,0,1-1.72-1.72,5.22,5.22,0,0,1,0-5,4.48,4.48,0,0,1,1.72-1.71,5.31,5.31,0,0,1,4.94,0,4.48,4.48,0,0,1,1.72,1.71,5.29,5.29,0,0,1,0,5,4.58,4.58,0,0,1-1.72,1.72,5.23,5.23,0,0,1-4.94,0Zm4.28-1a3.29,3.29,0,0,0,1.25-1.31,4.34,4.34,0,0,0,0-3.85,3.29,3.29,0,0,0-1.25-1.31,3.87,3.87,0,0,0-3.62,0,3.38,3.38,0,0,0-1.26,1.31,4.26,4.26,0,0,0,0,3.85,3.38,3.38,0,0,0,1.26,1.31,3.79,3.79,0,0,0,3.62,0Z" transform="translate(-49.5 -97.01)" style="fill: #fff"></path> <path d="M1407.83,693h4.72v1.12h-4.72Z" transform="translate(-49.5 -97.01)" style="fill: #fff"></path> <path d="M1420.16,689h1.28v7.52l6.32-7.52h1.13v9.47h-1.27v-7.53l-6.3,7.53h-1.16Z" transform="translate(-49.5 -97.01)" style="fill: #fff"></path> <path d="M1447.85,689v9.47h-1.17v-7.49l-3.84,6.34h-.57l-3.84-6.36v7.51h-1.17V689h1.3l4,6.82,4.09-6.82Z" transform="translate(-49.5 -97.01)" style="fill: #fff"></path> <path d="M1457.58,689.81a3.53,3.53,0,0,1,1,2.74v5.87h-1.23v-1.48a2.85,2.85,0,0,1-1.27,1.15,4.39,4.39,0,0,1-2,.42,3.88,3.88,0,0,1-2.52-.76,2.61,2.61,0,0,1-.06-3.94,4.28,4.28,0,0,1,2.78-.74h3v-.57a2.43,2.43,0,0,0-.69-1.87,2.83,2.83,0,0,0-2-.63,5,5,0,0,0-1.73.29,4.35,4.35,0,0,0-1.43.82l-.57-1a5.08,5.08,0,0,1,1.73-.95,6.77,6.77,0,0,1,2.12-.33A4,4,0,0,1,1457.58,689.81Zm-1.43,7.2a3,3,0,0,0,1.15-1.43V694h-3c-1.62,0-2.43.56-2.43,1.69a1.53,1.53,0,0,0,.63,1.3,2.85,2.85,0,0,0,1.76.48A3.4,3.4,0,0,0,1456.15,697Z" transform="translate(-49.5 -97.01)" style="fill: #fff"></path> <path d="M1469.72,689v9.47h-1.28v-8.34h-4.54l-.12,2.34a17.5,17.5,0,0,1-.69,4.54,2,2,0,0,1-1.92,1.58,3.49,3.49,0,0,1-.92-.14l.09-1.1a2.66,2.66,0,0,0,.45.08,1.22,1.22,0,0,0,1.12-.69,4.61,4.61,0,0,0,.5-1.69c.08-.67.16-1.56.22-2.67l.16-3.38Z" transform="translate(-49.5 -97.01)" style="fill: #fff"></path> <path d="M1474.79,697.89a4.58,4.58,0,0,1-1.72-1.72,5.22,5.22,0,0,1,0-5,4.48,4.48,0,0,1,1.72-1.71,5.31,5.31,0,0,1,4.94,0,4.39,4.39,0,0,1,1.71,1.71,5.22,5.22,0,0,1,0,5,4.48,4.48,0,0,1-1.71,1.72,5.23,5.23,0,0,1-4.94,0Zm4.28-1a3.29,3.29,0,0,0,1.25-1.31,4.34,4.34,0,0,0,0-3.85,3.29,3.29,0,0,0-1.25-1.31,3.87,3.87,0,0,0-3.62,0,3.38,3.38,0,0,0-1.26,1.31,4.26,4.26,0,0,0,0,3.85,3.38,3.38,0,0,0,1.26,1.31,3.79,3.79,0,0,0,3.62,0Z" transform="translate(-49.5 -97.01)" style="fill: #fff"></path> <path d="M1491.5,690.08h-5.42v8.34h-1.28V689h6.7Z" transform="translate(-49.5 -97.01)" style="fill: #fff"></path> <path d="M1494.36,697.89a4.61,4.61,0,0,1-1.73-1.72,5.22,5.22,0,0,1,0-5,4.51,4.51,0,0,1,1.73-1.71,5.29,5.29,0,0,1,4.93,0,4.42,4.42,0,0,1,1.72,1.71,5.29,5.29,0,0,1,0,5,4.51,4.51,0,0,1-1.72,1.72,5.21,5.21,0,0,1-4.93,0Zm4.27-1a3.22,3.22,0,0,0,1.25-1.31,4.34,4.34,0,0,0,0-3.85,3.22,3.22,0,0,0-1.25-1.31,3.85,3.85,0,0,0-3.61,0,3.25,3.25,0,0,0-1.26,1.31,4.26,4.26,0,0,0,0,3.85,3.25,3.25,0,0,0,1.26,1.31,3.77,3.77,0,0,0,3.61,0Z" transform="translate(-49.5 -97.01)" style="fill: #fff"></path> <path d="M1516,689.77a4.1,4.1,0,0,1,1.61,1.64,4.84,4.84,0,0,1,.58,2.4,5,5,0,0,1-.6,2.46,4.28,4.28,0,0,1-1.69,1.66,5,5,0,0,1-2.48.6,4.38,4.38,0,0,1-3.66-1.66,7.26,7.26,0,0,1-1.29-4.57,8,8,0,0,1,1.16-4.66,5.91,5.91,0,0,1,3.63-2.2l4.24-1,.22,1.17-4,.92a5.2,5.2,0,0,0-3,1.59,5.5,5.5,0,0,0-1,3.38,4.29,4.29,0,0,1,1.6-1.72,4.43,4.43,0,0,1,2.36-.63A4.69,4.69,0,0,1,1516,689.77Zm-.77,7.24a3.23,3.23,0,0,0,1.22-1.29,3.85,3.85,0,0,0,.44-1.87,3.76,3.76,0,0,0-.43-1.84,3,3,0,0,0-1.21-1.23,3.88,3.88,0,0,0-3.59,0,3.07,3.07,0,0,0-1.22,1.23,3.76,3.76,0,0,0-.44,1.84,4,4,0,0,0,.44,1.87,3.18,3.18,0,0,0,1.23,1.29,3.75,3.75,0,0,0,3.56,0Z" transform="translate(-49.5 -97.01)" style="fill: #fff"></path> <path d="M1521,689h1.27v7.52l6.32-7.52h1.13v9.47h-1.27v-7.53l-6.3,7.53H1521Z" transform="translate(-49.5 -97.01)" style="fill: #fff"></path> <path d="M1539.3,694.3a2,2,0,0,1,.54,1.4,2.17,2.17,0,0,1-.56,1.48,3.72,3.72,0,0,1-1.54,1,6.36,6.36,0,0,1-2.14.35,6.91,6.91,0,0,1-2-.3,5.31,5.31,0,0,1-1.73-.87l.43-1a4.93,4.93,0,0,0,1.52.76,5.75,5.75,0,0,0,1.74.27,4.15,4.15,0,0,0,2.15-.5,1.5,1.5,0,0,0,.84-1.34,1.34,1.34,0,0,0-.68-1.18A3.59,3.59,0,0,0,1536,694h-1.62v-.94h1.55a3.18,3.18,0,0,0,1.71-.4,1.24,1.24,0,0,0,.65-1.09,1.33,1.33,0,0,0-.73-1.19,3.66,3.66,0,0,0-1.9-.43,6.55,6.55,0,0,0-3,.77l-.36-1a7.61,7.61,0,0,1,3.51-.88,5.7,5.7,0,0,1,2,.32,3.23,3.23,0,0,1,1.37.89,2,2,0,0,1,.49,1.33,1.87,1.87,0,0,1-.49,1.28,1,1,0,1,0,.22,1.64Z" transform="translate(-49.5 -97.01)" style="fill: #fff"></path> <path d="M1542.74,689H1544v4.19h6V689h1.28v9.47H1550v-4.18h-6v4.18h-1.28Z" transform="translate(-49.5 -97.01)" style="fill: #fff"></path> <path d="M1563.17,694.08h-7.92a3.37,3.37,0,0,0,1.14,2.39,3.77,3.77,0,0,0,2.59.91,4.07,4.07,0,0,0,1.62-.32,3.55,3.55,0,0,0,1.28-.93l.72.83a4.07,4.07,0,0,1-1.58,1.15,5.21,5.21,0,0,1-2.08.4,5.29,5.29,0,0,1-2.58-.62,4.55,4.55,0,0,1-1.76-1.72,4.9,4.9,0,0,1-.63-2.49,5,5,0,0,1,.61-2.48,4.38,4.38,0,0,1,1.65-1.71,4.62,4.62,0,0,1,2.37-.61,4.56,4.56,0,0,1,2.36.61,4.47,4.47,0,0,1,1.64,1.7,5.2,5.2,0,0,1,.59,2.49Zm-6.86-3.23a3.45,3.45,0,0,0-1.06,2.28H1562a3.45,3.45,0,0,0-1.06-2.28,3.25,3.25,0,0,0-2.31-.87A3.2,3.2,0,0,0,1556.31,690.85Z" transform="translate(-49.5 -97.01)" style="fill: #fff"></path> <path d="M1567.46,697.9a4.47,4.47,0,0,1-1.73-1.72,5,5,0,0,1-.63-2.5,4.89,4.89,0,0,1,.63-2.48,4.51,4.51,0,0,1,1.73-1.71,5.11,5.11,0,0,1,2.52-.61,4.82,4.82,0,0,1,2.18.48,3.58,3.58,0,0,1,1.52,1.39l-1,.65a2.93,2.93,0,0,0-1.19-1A3.43,3.43,0,0,0,1570,690a3.78,3.78,0,0,0-1.85.45,3.29,3.29,0,0,0-1.28,1.31,4.28,4.28,0,0,0,0,3.86,3.27,3.27,0,0,0,1.28,1.3,3.79,3.79,0,0,0,1.85.46,3.57,3.57,0,0,0,1.56-.35,2.9,2.9,0,0,0,1.19-1l1,.65a3.61,3.61,0,0,1-1.53,1.39,4.81,4.81,0,0,1-2.17.48A5.22,5.22,0,0,1,1567.46,697.9Z" transform="translate(-49.5 -97.01)" style="fill: #fff"></path> <path d="M1582.25,689.81a3.56,3.56,0,0,1,1,2.74v5.87H1582v-1.48a2.85,2.85,0,0,1-1.27,1.15,4.39,4.39,0,0,1-2,.42,3.85,3.85,0,0,1-2.52-.76,2.45,2.45,0,0,1-.94-2,2.4,2.4,0,0,1,.88-1.94,4.28,4.28,0,0,1,2.78-.74h3v-.57a2.43,2.43,0,0,0-.68-1.87,2.86,2.86,0,0,0-2-.63,5.07,5.07,0,0,0-1.73.29,4.41,4.41,0,0,0-1.42.82l-.57-1a5,5,0,0,1,1.72-.95,6.83,6.83,0,0,1,2.13-.33A4,4,0,0,1,1582.25,689.81Zm-1.44,7.2a2.93,2.93,0,0,0,1.15-1.43V694h-3c-1.62,0-2.43.56-2.43,1.69a1.53,1.53,0,0,0,.63,1.3,2.87,2.87,0,0,0,1.77.48A3.34,3.34,0,0,0,1580.81,697Z" transform="translate(-49.5 -97.01)" style="fill: #fff"></path> </g> </g> </g> </svg> 