<?xml version="1.0" standalone="no"?>
<!DOCTYPE svg PUBLIC "-//W3C//DTD SVG 20010904//EN"
 "http://www.w3.org/TR/2001/REC-SVG-20010904/DTD/svg10.dtd">
<svg version="1.0" xmlns="http://www.w3.org/2000/svg"
 width="250.000000pt" height="250.000000pt" viewBox="0 0 250.000000 250.000000"
 preserveAspectRatio="xMidYMid meet">
<g transform="translate(0.000000,250.000000) scale(0.100000,-0.100000)"
fill="#4d23dc" stroke="none">
<path d="M1015 2400 c-292 -63 -545 -230 -719 -472 -64 -91 -142 -258 -173
-375 -25 -91 -27 -113 -27 -298 0 -185 2 -207 27 -298 31 -117 109 -284 173
-375 158 -221 399 -389 660 -459 92 -25 113 -27 299 -27 185 0 207 2 298 27
117 31 284 109 375 173 221 158 389 399 459 660 25 92 27 113 27 299 0 186 -2
207 -27 299 -70 261 -238 502 -459 660 -92 65 -259 142 -375 173 -137 36 -402
43 -538 13z m240 -1051 l460 -592 3 592 2 591 35 0 35 0 0 -656 0 -655 -32 3
c-29 3 -71 53 -487 580 l-456 576 -3 -579 -2 -579 -35 0 -35 0 0 655 0 655 28
0 c24 0 77 -64 487 -591z"/>
</g>
</svg>
